<?xml version="1.0" encoding="UTF-8" standalone="no"?>
<svg
   sodipodi:docname="logo.svg"
   y="0px"
   x="0px"
   viewBox="0 0 100 100"
   version="1.1"
   id="svg"
   inkscape:version="1.2 (dc2aedaf03, 2022-05-15)"
   xmlns:inkscape="http://www.inkscape.org/namespaces/inkscape"
   xmlns:sodipodi="http://sodipodi.sourceforge.net/DTD/sodipodi-0.dtd"
   xmlns="http://www.w3.org/2000/svg"
   xmlns:svg="http://www.w3.org/2000/svg">
  <sodipodi:namedview
     id="namedview14"
     pagecolor="#ffffff"
     bordercolor="#666666"
     borderopacity="1.0"
     inkscape:pageshadow="2"
     inkscape:pageopacity="0.0"
     inkscape:pagecheckerboard="0"
     showgrid="false"
     inkscape:zoom="8.73"
     inkscape:cx="53.150057"
     inkscape:cy="41.867125"
     inkscape:window-width="1718"
     inkscape:window-height="1376"
     inkscape:window-x="1706"
     inkscape:window-y="0"
     inkscape:window-maximized="0"
     inkscape:current-layer="svg"
     inkscape:showpageshadow="2"
     inkscape:deskcolor="#d1d1d1" />
  <style
     type="text/css"
     id="style2">/* devanagari */
@font-face {
  font-family: 'Cambay';
  font-style: normal;
  font-weight: 400;
  src: url(https://fonts.gstatic.com/s/cambay/v12/SLXJc1rY6H0_ZDs2aL6J_9I.woff2) format('woff2');
  unicode-range: U+0900-097F, U+1CD0-1CF6, U+1CF8-1CF9, U+200C-200D, U+20A8, U+20B9, U+25CC, U+A830-A839, U+A8E0-A8FB;
}
/* latin-ext */
@font-face {
  font-family: 'Cambay';
  font-style: normal;
  font-weight: 400;
  src: url(https://fonts.gstatic.com/s/cambay/v12/SLXJc1rY6H0_ZDs2Z76J_9I.woff2) format('woff2');
  unicode-range: U+0100-024F, U+0259, U+1E00-1EFF, U+2020, U+20A0-20AB, U+20AD-20CF, U+2113, U+2C60-2C7F, U+A720-A7FF;
}
/* latin */
@font-face {
  font-family: 'Cambay';
  font-style: normal;
  font-weight: 400;
  src: url(https://fonts.gstatic.com/s/cambay/v12/SLXJc1rY6H0_ZDs2ab6J.woff2) format('woff2');
  unicode-range: U+0000-00FF, U+0131, U+0152-0153, U+02BB-02BC, U+02C6, U+02DA, U+02DC, U+2000-206F, U+2074, U+20AC, U+2122, U+2191, U+2193, U+2212, U+2215, U+FEFF, U+FFFD;
}
</style>
  <defs
     id="defs7">
    <clipPath
       id="circleClip">
      <circle
         cx="50"
         cy="50"
         r="50"
         id="circle4" />
    </clipPath>
  </defs>
  <rect
     style="fill:#ececec;stroke-width:1.00223"
     id="rect188"
     width="95"
     height="95"
     x="2.5"
     y="2.5"
     ry="4.6964483" />
  <text
     fill="#2E3440"
     font-family="Cambay"
     font-size="50"
     font-weight="600"
     text-anchor="middle"
     x="50"
     y="68"
     id="text11" />
  <g
     aria-label="D"
     id="text9111"
     style="font-weight:300;font-size:65.9683px;line-height:1.25;font-family:Aquire;-inkscape-font-specification:'Aquire Light';fill:#2e3440;fill-opacity:1"
     transform="translate(-2)">
    <path
       d="M 91.944313,47.196341 C 91.218662,42.380655 88.843803,37.960779 85.215547,34.728333 81.521322,31.495886 76.771604,29.648774 71.823982,29.582805 H 70.900425 55.59578 v 3.364384 h 16.755948 v 0 c 3.49632,0.197904 6.794735,1.385334 9.565404,3.496319 3.364383,2.506796 5.673273,6.201021 6.464893,10.291055 0.263873,1.055493 0.39581,2.242922 0.39581,3.364384 0,1.187429 -0.131937,2.374858 -0.39581,3.496319 C 86.930722,60.653875 81.125512,66.063275 74.066904,67.0528 H 74.000936 55.59578 v 3.364383 h 18.60306 c 9.103626,-1.121461 16.360139,-8.246038 17.679505,-17.283695 0.131936,-0.989524 0.263873,-2.045017 0.263873,-3.034541 0,-0.989525 -0.06597,-1.913081 -0.197905,-2.902606 z"
       id="path9195"
       sodipodi:nodetypes="cccccccsccscccccccsc"
       style="fill:#2e3440;fill-opacity:1" />
  </g>
  <path
     id="path9770"
     style="font-weight:300;font-size:65.9683px;line-height:1.25;font-family:Aquire;-inkscape-font-specification:'Aquire Light';fill:#88c0d0;fill-opacity:1"
     d="M 9.6269531 43.634766 L 9.6269531 70.417969 L 13.189453 70.417969 L 13.189453 47.197266 L 9.6269531 43.634766 z " />
  <path
     id="path9996"
     style="font-weight:300;font-size:65.9683px;line-height:1.25;font-family:Aquire;-inkscape-font-specification:'Aquire Light';fill:#2e3440"
     d="M 9.6269531 29.582031 L 9.6269531 34.595703 L 13.189453 38.091797 L 15.828125 40.732422 L 28.757812 53.726562 L 30.144531 52.275391 L 30.605469 51.814453 L 32.320312 50.099609 L 41.357422 41.060547 L 43.996094 38.421875 L 43.996094 70.417969 L 47.558594 70.417969 L 47.558594 29.912109 L 41.160156 36.246094 L 28.757812 48.712891 L 9.6269531 29.582031 z " />
</svg>
